<?xml version="1.0" encoding="UTF-8"?>
<!DOCTYPE svg PUBLIC "-//W3C//DTD SVG 1.1//EN" "http://www.w3.org/Graphics/SVG/1.1/DTD/svg11.dtd">
<!-- Creator: CorelDRAW (Versión OEM) -->
<svg xmlns="http://www.w3.org/2000/svg" xml:space="preserve" width="10.4205mm" height="5.6401mm" version="1.1" style="shape-rendering:geometricPrecision; text-rendering:geometricPrecision; image-rendering:optimizeQuality; fill-rule:evenodd; clip-rule:evenodd"
viewBox="0 0 8.48 4.59"
 xmlns:xlink="http://www.w3.org/1999/xlink"
 xmlns:xodm="http://www.corel.com/coreldraw/odm/2003">
 <defs>
  <style type="text/css">
   <![CDATA[
    .str0 {stroke:white;stroke-width:0.06;stroke-miterlimit:22.9256;stroke-opacity:0.901961}
    .fil1 {fill:none;fill-rule:nonzero}
    .fil0 {fill:black;fill-rule:nonzero;fill-opacity:0.901961}
   ]]>
  </style>
 </defs>
 <g id="Capa_x0020_1">
  <metadata id="CorelCorpID_0Corel-Layer"/>
  <path class="fil0" d="M1.06 0.03l0.65 0 0 1.54 -0.65 0 0 -0.57 -0.35 0.03 0 0.54 -0.65 0 0 -1.54 0.65 0 0 0.56 0.35 -0.03 0 -0.53zm1.61 1.57c-0.09,0 -0.19,-0.01 -0.27,-0.04 -0.09,-0.03 -0.17,-0.07 -0.24,-0.13 -0.07,-0.06 -0.13,-0.12 -0.17,-0.2 -0.04,-0.08 -0.06,-0.17 -0.06,-0.26 0,-0.1 0.02,-0.18 0.06,-0.26 0.04,-0.08 0.09,-0.15 0.16,-0.2 0.07,-0.06 0.15,-0.1 0.24,-0.13 0.09,-0.03 0.19,-0.05 0.29,-0.05 0.14,0 0.27,0.03 0.39,0.08 0.12,0.05 0.21,0.13 0.27,0.22 0.07,0.1 0.1,0.21 0.1,0.34 0,0.1 -0.02,0.19 -0.06,0.26 -0.04,0.08 -0.1,0.15 -0.17,0.2 -0.07,0.06 -0.15,0.1 -0.24,0.13 -0.09,0.03 -0.19,0.04 -0.29,0.04zm-0.07 -0.39c0.03,0 0.07,-0.01 0.1,-0.04 0.04,-0.03 0.07,-0.06 0.11,-0.1 0.04,-0.04 0.06,-0.09 0.09,-0.13 0.02,-0.05 0.03,-0.09 0.03,-0.13 0,-0.03 -0.01,-0.06 -0.02,-0.08 -0.02,-0.02 -0.04,-0.04 -0.08,-0.04 -0.04,0 -0.07,0.01 -0.12,0.04 -0.04,0.03 -0.08,0.06 -0.11,0.1 -0.04,0.04 -0.06,0.08 -0.09,0.13 -0.02,0.05 -0.03,0.09 -0.03,0.13 0,0.03 0.01,0.05 0.03,0.08 0.02,0.02 0.05,0.04 0.1,0.04zm1.93 -0.22c0,-0.1 -0.02,-0.18 -0.05,-0.23 -0.03,-0.05 -0.08,-0.07 -0.14,-0.07 -0.03,0 -0.05,0.01 -0.07,0.04 -0.01,0.02 -0.02,0.05 -0.02,0.09l0 0.75 -0.62 0 0 -1.2 0.34 0 0.15 0.19c0.06,-0.07 0.14,-0.13 0.24,-0.17 0.1,-0.04 0.2,-0.06 0.31,-0.06 0.09,0 0.17,0.02 0.24,0.05 0.07,0.03 0.13,0.08 0.18,0.15 0.04,0.06 0.07,0.14 0.07,0.23l0 0.82 -0.63 0 0 -0.58zm1.5 0.61c-0.08,0 -0.17,-0.01 -0.25,-0.04 -0.08,-0.02 -0.15,-0.06 -0.22,-0.11 -0.07,-0.05 -0.12,-0.11 -0.16,-0.18 -0.04,-0.07 -0.06,-0.15 -0.06,-0.25 0,-0.12 0.02,-0.22 0.07,-0.31 0.05,-0.09 0.11,-0.16 0.19,-0.22 0.08,-0.06 0.17,-0.1 0.27,-0.13 0.1,-0.03 0.2,-0.04 0.31,-0.04 0.14,0 0.25,0.02 0.33,0.06 0.09,0.04 0.15,0.09 0.19,0.15 0.04,0.06 0.06,0.12 0.06,0.19 0,0.07 -0.02,0.14 -0.07,0.21 -0.05,0.07 -0.12,0.12 -0.22,0.16 -0.1,0.04 -0.22,0.06 -0.36,0.06 -0.01,0 -0.03,0 -0.05,-0 -0.02,-0 -0.04,-0 -0.06,-0 0,0.04 0.01,0.07 0.03,0.09 0.02,0.02 0.05,0.03 0.08,0.03 0.03,0 0.06,0.01 0.1,0.01 0.03,0 0.07,-0 0.12,-0.01 0.05,-0.01 0.11,-0.02 0.17,-0.05 0.06,-0.02 0.12,-0.06 0.17,-0.1l0.07 0.3c-0.08,0.07 -0.19,0.11 -0.31,0.14 -0.13,0.03 -0.26,0.04 -0.39,0.04zm-0.03 -0.67l0.23 -0.05 0.02 -0.15c0,-0 0,-0.01 0,-0.01 0,-0 0,-0.01 0,-0.01 0,-0.06 -0.03,-0.08 -0.09,-0.08 -0.05,0 -0.08,0.02 -0.1,0.05 -0.02,0.03 -0.03,0.06 -0.04,0.11 -0.01,0.04 -0.01,0.09 -0.02,0.15zm1.94 0.56c-0.04,0.09 -0.08,0.16 -0.13,0.23 -0.05,0.07 -0.11,0.12 -0.18,0.16 -0.07,0.04 -0.16,0.06 -0.26,0.06 -0.08,0 -0.16,-0 -0.24,-0.01 -0.08,-0.01 -0.14,-0.02 -0.19,-0.04l0 -0.34c0.03,0.01 0.07,0.01 0.13,0.02 0.05,0.01 0.1,0.01 0.15,0.01 0.05,0 0.08,-0.01 0.11,-0.04 0.03,-0.03 0.04,-0.06 0.04,-0.1 0,-0.01 -0,-0.02 -0,-0.03 -0,-0.01 -0,-0.02 -0.01,-0.03l-0.54 -1.01 0.63 0 0.23 0.46 0.21 -0.46 0.55 0 -0.49 1.12zm-7.91 2.25c0,0 0.02,0.01 0.06,0.02 0.04,0.01 0.08,0.02 0.13,0.04 0.05,0.01 0.1,0.02 0.15,0.03 0.05,0.01 0.09,0.02 0.13,0.02 0.03,0 0.06,-0 0.08,-0.01 0.02,-0.01 0.03,-0.02 0.03,-0.05 0,-0.02 -0.01,-0.05 -0.04,-0.07 -0.03,-0.02 -0.06,-0.04 -0.11,-0.06 -0.04,-0.02 -0.09,-0.05 -0.14,-0.07 -0.05,-0.03 -0.1,-0.06 -0.14,-0.1 -0.04,-0.04 -0.08,-0.08 -0.11,-0.14 -0.03,-0.05 -0.04,-0.12 -0.04,-0.19 0,-0.09 0.02,-0.17 0.06,-0.23 0.04,-0.06 0.1,-0.11 0.17,-0.15 0.07,-0.04 0.15,-0.07 0.24,-0.08 0.09,-0.02 0.18,-0.03 0.27,-0.03 0.08,0 0.15,0 0.22,0.01 0.07,0.01 0.13,0.02 0.18,0.02 0.05,0.01 0.08,0.02 0.09,0.02l0 0.44c0,0 -0.01,-0 -0.04,-0.01 -0.03,-0.01 -0.07,-0.01 -0.11,-0.02 -0.04,-0.01 -0.09,-0.01 -0.14,-0.02 -0.05,-0.01 -0.09,-0.01 -0.12,-0.01 -0.03,0 -0.06,0.01 -0.07,0.02 -0.02,0.01 -0.02,0.02 -0.02,0.04 0,0.01 0.01,0.02 0.02,0.04 0.01,0.01 0.03,0.02 0.05,0.03 0.07,0.03 0.14,0.06 0.21,0.09 0.07,0.03 0.12,0.07 0.17,0.11 0.05,0.04 0.09,0.09 0.12,0.15 0.03,0.06 0.04,0.13 0.04,0.21 0,0.1 -0.03,0.19 -0.08,0.26 -0.06,0.07 -0.13,0.13 -0.24,0.17 -0.1,0.04 -0.23,0.06 -0.37,0.06 -0.13,0 -0.23,-0.01 -0.31,-0.02 -0.08,-0.01 -0.15,-0.02 -0.19,-0.04 -0.05,-0.01 -0.08,-0.03 -0.1,-0.04 -0.02,-0.01 -0.03,-0.02 -0.03,-0.02l0 -0.44zm2.24 0.55c-0.09,0 -0.19,-0.01 -0.27,-0.04 -0.09,-0.03 -0.17,-0.07 -0.24,-0.13 -0.07,-0.06 -0.13,-0.12 -0.17,-0.2 -0.04,-0.08 -0.06,-0.17 -0.06,-0.26 0,-0.1 0.02,-0.18 0.06,-0.26 0.04,-0.08 0.09,-0.15 0.16,-0.2 0.07,-0.06 0.15,-0.1 0.24,-0.13 0.09,-0.03 0.19,-0.05 0.29,-0.05 0.14,0 0.27,0.03 0.39,0.08 0.12,0.05 0.21,0.13 0.27,0.22 0.07,0.1 0.1,0.21 0.1,0.34 0,0.1 -0.02,0.19 -0.06,0.26 -0.04,0.08 -0.1,0.15 -0.17,0.2 -0.07,0.06 -0.15,0.1 -0.24,0.13 -0.09,0.03 -0.19,0.04 -0.29,0.04zm-0.07 -0.39c0.03,0 0.07,-0.01 0.1,-0.04 0.04,-0.03 0.07,-0.06 0.11,-0.1 0.04,-0.04 0.06,-0.09 0.09,-0.13 0.02,-0.05 0.03,-0.09 0.03,-0.13 0,-0.03 -0.01,-0.06 -0.02,-0.08 -0.02,-0.02 -0.04,-0.04 -0.08,-0.04 -0.04,0 -0.07,0.01 -0.12,0.04 -0.04,0.03 -0.08,0.06 -0.11,0.1 -0.04,0.04 -0.06,0.08 -0.09,0.13 -0.02,0.05 -0.03,0.09 -0.03,0.13 0,0.03 0.01,0.05 0.03,0.08 0.02,0.02 0.05,0.04 0.1,0.04zm1.66 -0.29c0,0.08 0.01,0.15 0.02,0.19 0.02,0.05 0.04,0.08 0.06,0.1 0.03,0.02 0.05,0.03 0.08,0.03 0.04,0 0.07,-0.01 0.08,-0.04 0.01,-0.02 0.02,-0.05 0.02,-0.09l0 -0.75 0.62 0 0 1.2 -0.34 0 -0.15 -0.19c-0.06,0.07 -0.14,0.13 -0.24,0.17 -0.1,0.04 -0.2,0.06 -0.31,0.06 -0.09,0 -0.17,-0.02 -0.24,-0.05 -0.07,-0.03 -0.13,-0.08 -0.18,-0.15 -0.04,-0.06 -0.07,-0.14 -0.07,-0.23l0 -0.82 0.63 0 0 0.56zm2.13 -0.6c0.12,0 0.22,0.02 0.29,0.07 0.08,0.04 0.14,0.1 0.18,0.18 0.04,0.07 0.06,0.15 0.06,0.24 0,0.06 -0.01,0.13 -0.03,0.2 -0.02,0.07 -0.05,0.14 -0.09,0.2 -0.04,0.07 -0.1,0.13 -0.17,0.18 -0.07,0.05 -0.15,0.1 -0.25,0.13 -0.1,0.03 -0.22,0.05 -0.35,0.05l0 0.31 -0.62 0 0 -1.51 0.34 0 0.15 0.19c0.08,-0.08 0.17,-0.14 0.26,-0.18 0.09,-0.04 0.17,-0.05 0.24,-0.05zm-0.11 0.4c-0.03,0 -0.06,0.01 -0.1,0.03 -0.03,0.02 -0.06,0.05 -0.09,0.09 -0.03,0.04 -0.05,0.07 -0.07,0.11l0 0.28c0.02,-0.01 0.05,-0.03 0.09,-0.05 0.04,-0.02 0.08,-0.05 0.13,-0.09 0.04,-0.04 0.08,-0.07 0.11,-0.12 0.03,-0.05 0.05,-0.09 0.05,-0.15 0,-0.03 -0.01,-0.05 -0.03,-0.07 -0.02,-0.02 -0.05,-0.03 -0.09,-0.03z"/>
  <path id="_1" class="fil1 str0" d="M1.06 0.03l0.65 0 0 1.54 -0.65 0 0 -0.57 -0.35 0.03 0 0.54 -0.65 0 0 -1.54 0.65 0 0 0.56 0.35 -0.03 0 -0.53zm1.61 1.57c-0.09,0 -0.19,-0.01 -0.27,-0.04 -0.09,-0.03 -0.17,-0.07 -0.24,-0.13 -0.07,-0.06 -0.13,-0.12 -0.17,-0.2 -0.04,-0.08 -0.06,-0.17 -0.06,-0.26 0,-0.1 0.02,-0.18 0.06,-0.26 0.04,-0.08 0.09,-0.15 0.16,-0.2 0.07,-0.06 0.15,-0.1 0.24,-0.13 0.09,-0.03 0.19,-0.05 0.29,-0.05 0.14,0 0.27,0.03 0.39,0.08 0.12,0.05 0.21,0.13 0.27,0.22 0.07,0.1 0.1,0.21 0.1,0.34 0,0.1 -0.02,0.19 -0.06,0.26 -0.04,0.08 -0.1,0.15 -0.17,0.2 -0.07,0.06 -0.15,0.1 -0.24,0.13 -0.09,0.03 -0.19,0.04 -0.29,0.04zm-0.07 -0.39c0.03,0 0.07,-0.01 0.1,-0.04 0.04,-0.03 0.07,-0.06 0.11,-0.1 0.04,-0.04 0.06,-0.09 0.09,-0.13 0.02,-0.05 0.03,-0.09 0.03,-0.13 0,-0.03 -0.01,-0.06 -0.02,-0.08 -0.02,-0.02 -0.04,-0.04 -0.08,-0.04 -0.04,0 -0.07,0.01 -0.12,0.04 -0.04,0.03 -0.08,0.06 -0.11,0.1 -0.04,0.04 -0.06,0.08 -0.09,0.13 -0.02,0.05 -0.03,0.09 -0.03,0.13 0,0.03 0.01,0.05 0.03,0.08 0.02,0.02 0.05,0.04 0.1,0.04zm1.93 -0.22c0,-0.1 -0.02,-0.18 -0.05,-0.23 -0.03,-0.05 -0.08,-0.07 -0.14,-0.07 -0.03,0 -0.05,0.01 -0.07,0.04 -0.01,0.02 -0.02,0.05 -0.02,0.09l0 0.75 -0.62 0 0 -1.2 0.34 0 0.15 0.19c0.06,-0.07 0.14,-0.13 0.24,-0.17 0.1,-0.04 0.2,-0.06 0.31,-0.06 0.09,0 0.17,0.02 0.24,0.05 0.07,0.03 0.13,0.08 0.18,0.15 0.04,0.06 0.07,0.14 0.07,0.23l0 0.82 -0.63 0 0 -0.58zm1.5 0.61c-0.08,0 -0.17,-0.01 -0.25,-0.04 -0.08,-0.02 -0.15,-0.06 -0.22,-0.11 -0.07,-0.05 -0.12,-0.11 -0.16,-0.18 -0.04,-0.07 -0.06,-0.15 -0.06,-0.25 0,-0.12 0.02,-0.22 0.07,-0.31 0.05,-0.09 0.11,-0.16 0.19,-0.22 0.08,-0.06 0.17,-0.1 0.27,-0.13 0.1,-0.03 0.2,-0.04 0.31,-0.04 0.14,0 0.25,0.02 0.33,0.06 0.09,0.04 0.15,0.09 0.19,0.15 0.04,0.06 0.06,0.12 0.06,0.19 0,0.07 -0.02,0.14 -0.07,0.21 -0.05,0.07 -0.12,0.12 -0.22,0.16 -0.1,0.04 -0.22,0.06 -0.36,0.06 -0.01,0 -0.03,0 -0.05,-0 -0.02,-0 -0.04,-0 -0.06,-0 0,0.04 0.01,0.07 0.03,0.09 0.02,0.02 0.05,0.03 0.08,0.03 0.03,0 0.06,0.01 0.1,0.01 0.03,0 0.07,-0 0.12,-0.01 0.05,-0.01 0.11,-0.02 0.17,-0.05 0.06,-0.02 0.12,-0.06 0.17,-0.1l0.07 0.3c-0.08,0.07 -0.19,0.11 -0.31,0.14 -0.13,0.03 -0.26,0.04 -0.39,0.04zm-0.03 -0.67l0.23 -0.05 0.02 -0.15c0,-0 0,-0.01 0,-0.01 0,-0 0,-0.01 0,-0.01 0,-0.06 -0.03,-0.08 -0.09,-0.08 -0.05,0 -0.08,0.02 -0.1,0.05 -0.02,0.03 -0.03,0.06 -0.04,0.11 -0.01,0.04 -0.01,0.09 -0.02,0.15zm1.94 0.56c-0.04,0.09 -0.08,0.16 -0.13,0.23 -0.05,0.07 -0.11,0.12 -0.18,0.16 -0.07,0.04 -0.16,0.06 -0.26,0.06 -0.08,0 -0.16,-0 -0.24,-0.01 -0.08,-0.01 -0.14,-0.02 -0.19,-0.04l0 -0.34c0.03,0.01 0.07,0.01 0.13,0.02 0.05,0.01 0.1,0.01 0.15,0.01 0.05,0 0.08,-0.01 0.11,-0.04 0.03,-0.03 0.04,-0.06 0.04,-0.1 0,-0.01 -0,-0.02 -0,-0.03 -0,-0.01 -0,-0.02 -0.01,-0.03l-0.54 -1.01 0.63 0 0.23 0.46 0.21 -0.46 0.55 0 -0.49 1.12zm-7.91 2.25c0,0 0.02,0.01 0.06,0.02 0.04,0.01 0.08,0.02 0.13,0.04 0.05,0.01 0.1,0.02 0.15,0.03 0.05,0.01 0.09,0.02 0.13,0.02 0.03,0 0.06,-0 0.08,-0.01 0.02,-0.01 0.03,-0.02 0.03,-0.05 0,-0.02 -0.01,-0.05 -0.04,-0.07 -0.03,-0.02 -0.06,-0.04 -0.11,-0.06 -0.04,-0.02 -0.09,-0.05 -0.14,-0.07 -0.05,-0.03 -0.1,-0.06 -0.14,-0.1 -0.04,-0.04 -0.08,-0.08 -0.11,-0.14 -0.03,-0.05 -0.04,-0.12 -0.04,-0.19 0,-0.09 0.02,-0.17 0.06,-0.23 0.04,-0.06 0.1,-0.11 0.17,-0.15 0.07,-0.04 0.15,-0.07 0.24,-0.08 0.09,-0.02 0.18,-0.03 0.27,-0.03 0.08,0 0.15,0 0.22,0.01 0.07,0.01 0.13,0.02 0.18,0.02 0.05,0.01 0.08,0.02 0.09,0.02l0 0.44c0,0 -0.01,-0 -0.04,-0.01 -0.03,-0.01 -0.07,-0.01 -0.11,-0.02 -0.04,-0.01 -0.09,-0.01 -0.14,-0.02 -0.05,-0.01 -0.09,-0.01 -0.12,-0.01 -0.03,0 -0.06,0.01 -0.07,0.02 -0.02,0.01 -0.02,0.02 -0.02,0.04 0,0.01 0.01,0.02 0.02,0.04 0.01,0.01 0.03,0.02 0.05,0.03 0.07,0.03 0.14,0.06 0.21,0.09 0.07,0.03 0.12,0.07 0.17,0.11 0.05,0.04 0.09,0.09 0.12,0.15 0.03,0.06 0.04,0.13 0.04,0.21 0,0.1 -0.03,0.19 -0.08,0.26 -0.06,0.07 -0.13,0.13 -0.24,0.17 -0.1,0.04 -0.23,0.06 -0.37,0.06 -0.13,0 -0.23,-0.01 -0.31,-0.02 -0.08,-0.01 -0.15,-0.02 -0.19,-0.04 -0.05,-0.01 -0.08,-0.03 -0.1,-0.04 -0.02,-0.01 -0.03,-0.02 -0.03,-0.02l0 -0.44zm2.24 0.55c-0.09,0 -0.19,-0.01 -0.27,-0.04 -0.09,-0.03 -0.17,-0.07 -0.24,-0.13 -0.07,-0.06 -0.13,-0.12 -0.17,-0.2 -0.04,-0.08 -0.06,-0.17 -0.06,-0.26 0,-0.1 0.02,-0.18 0.06,-0.26 0.04,-0.08 0.09,-0.15 0.16,-0.2 0.07,-0.06 0.15,-0.1 0.24,-0.13 0.09,-0.03 0.19,-0.05 0.29,-0.05 0.14,0 0.27,0.03 0.39,0.08 0.12,0.05 0.21,0.13 0.27,0.22 0.07,0.1 0.1,0.21 0.1,0.34 0,0.1 -0.02,0.19 -0.06,0.26 -0.04,0.08 -0.1,0.15 -0.17,0.2 -0.07,0.06 -0.15,0.1 -0.24,0.13 -0.09,0.03 -0.19,0.04 -0.29,0.04zm-0.07 -0.39c0.03,0 0.07,-0.01 0.1,-0.04 0.04,-0.03 0.07,-0.06 0.11,-0.1 0.04,-0.04 0.06,-0.09 0.09,-0.13 0.02,-0.05 0.03,-0.09 0.03,-0.13 0,-0.03 -0.01,-0.06 -0.02,-0.08 -0.02,-0.02 -0.04,-0.04 -0.08,-0.04 -0.04,0 -0.07,0.01 -0.12,0.04 -0.04,0.03 -0.08,0.06 -0.11,0.1 -0.04,0.04 -0.06,0.08 -0.09,0.13 -0.02,0.05 -0.03,0.09 -0.03,0.13 0,0.03 0.01,0.05 0.03,0.08 0.02,0.02 0.05,0.04 0.1,0.04zm1.66 -0.29c0,0.08 0.01,0.15 0.02,0.19 0.02,0.05 0.04,0.08 0.06,0.1 0.03,0.02 0.05,0.03 0.08,0.03 0.04,0 0.07,-0.01 0.08,-0.04 0.01,-0.02 0.02,-0.05 0.02,-0.09l0 -0.75 0.62 0 0 1.2 -0.34 0 -0.15 -0.19c-0.06,0.07 -0.14,0.13 -0.24,0.17 -0.1,0.04 -0.2,0.06 -0.31,0.06 -0.09,0 -0.17,-0.02 -0.24,-0.05 -0.07,-0.03 -0.13,-0.08 -0.18,-0.15 -0.04,-0.06 -0.07,-0.14 -0.07,-0.23l0 -0.82 0.63 0 0 0.56zm2.13 -0.6c0.12,0 0.22,0.02 0.29,0.07 0.08,0.04 0.14,0.1 0.18,0.18 0.04,0.07 0.06,0.15 0.06,0.24 0,0.06 -0.01,0.13 -0.03,0.2 -0.02,0.07 -0.05,0.14 -0.09,0.2 -0.04,0.07 -0.1,0.13 -0.17,0.18 -0.07,0.05 -0.15,0.1 -0.25,0.13 -0.1,0.03 -0.22,0.05 -0.35,0.05l0 0.31 -0.62 0 0 -1.51 0.34 0 0.15 0.19c0.08,-0.08 0.17,-0.14 0.26,-0.18 0.09,-0.04 0.17,-0.05 0.24,-0.05zm-0.11 0.4c-0.03,0 -0.06,0.01 -0.1,0.03 -0.03,0.02 -0.06,0.05 -0.09,0.09 -0.03,0.04 -0.05,0.07 -0.07,0.11l0 0.28c0.02,-0.01 0.05,-0.03 0.09,-0.05 0.04,-0.02 0.08,-0.05 0.13,-0.09 0.04,-0.04 0.08,-0.07 0.11,-0.12 0.03,-0.05 0.05,-0.09 0.05,-0.15 0,-0.03 -0.01,-0.05 -0.03,-0.07 -0.02,-0.02 -0.05,-0.03 -0.09,-0.03z"/>
 </g>
</svg>
